<svg xmlns="http://www.w3.org/2000/svg" xmlns:xlink="http://www.w3.org/1999/xlink" viewBox="0 0 1800 1122"><defs><style>.cls-1{fill:none;}.cls-2{isolation:isolate;}.cls-3{fill:#e5e6e7;}.cls-4{fill:#dcdcdb;}.cls-5{fill:#595a5c;}.cls-6{fill:#a6a7aa;}.cls-7{fill:#4674b7;}.cls-8{fill:#b6986d;}.cls-9{fill:#a5a7a9;}.cls-10{fill:#fff;}.cls-11{fill:#e6e6e6;}.cls-12{fill:#2c436d;}.cls-13{fill:#4f4f50;}.cls-14{fill:#6892b2;}.cls-15{fill:#d5772e;}.cls-16{opacity:0.5;mix-blend-mode:multiply;}.cls-17{clip-path:url(#clip-path);}.cls-18{clip-path:url(#clip-path-2);}.cls-19{clip-path:url(#clip-path-3);}.cls-20{clip-path:url(#clip-path-4);}.cls-21{clip-path:url(#clip-path-5);}.cls-22{clip-path:url(#clip-path-6);}.cls-23{clip-path:url(#clip-path-7);}</style><clipPath id="clip-path"><rect class="cls-1" x="1464.75" y="679.3" width="12.73" height="25.46"/></clipPath><clipPath id="clip-path-2"><rect class="cls-1" x="647.44" y="784.88" width="12.73" height="25.46"/></clipPath><clipPath id="clip-path-3"><rect class="cls-1" x="125.78" y="661.69" width="12.73" height="25.46"/></clipPath><clipPath id="clip-path-4"><rect class="cls-1" x="244.92" y="105.31" width="12.73" height="25.46"/></clipPath><clipPath id="clip-path-5"><rect class="cls-1" x="1671.53" y="793.16" width="32.89" height="65.78"/></clipPath><clipPath id="clip-path-6"><rect class="cls-1" x="1067.05" y="243.64" width="39.64" height="79.26"/></clipPath><clipPath id="clip-path-7"><rect class="cls-1" x="265.15" y="997.23" width="25.61" height="51.22"/></clipPath></defs><g class="cls-2"><g id="Objects"><path class="cls-3" d="M657.76,567.19h-124V491.94h124Zm-117.53-6.51h111V498.45h-111Z"/><path class="cls-4" d="M428.7,824.47a66.4,66.4,0,1,1,66.4-66.39A66.47,66.47,0,0,1,428.7,824.47Zm0-126.28a59.89,59.89,0,1,0,59.89,59.89A60,60,0,0,0,428.7,698.19Z"/><path class="cls-4" d="M272,905.92a43.38,43.38,0,1,1,43.38-43.38A43.42,43.42,0,0,1,272,905.92Zm0-80.24a36.87,36.87,0,1,0,36.87,36.86A36.89,36.89,0,0,0,272,825.68Z"/><path class="cls-4" d="M1654.22,610.82A95.79,95.79,0,1,1,1722,582.76,95.17,95.17,0,0,1,1654.22,610.82Zm0-185.05a89.26,89.26,0,1,0,63.12,26.14A88.68,88.68,0,0,0,1654.22,425.77Z"/><path class="cls-4" d="M912.84,1065.69a70,70,0,1,1,70-70.05A70.13,70.13,0,0,1,912.84,1065.69Zm0-133.59a63.54,63.54,0,1,0,63.54,63.54A63.61,63.61,0,0,0,912.84,932.1Z"/><path class="cls-4" d="M850.69,1057.64a34.8,34.8,0,1,1,34.8-34.79A34.83,34.83,0,0,1,850.69,1057.64Zm0-63.08A28.29,28.29,0,1,0,879,1022.85,28.32,28.32,0,0,0,850.69,994.56Z"/><path class="cls-4" d="M1496.43,984.28h-124V771.66h124Zm-117.53-6.51h111V778.17h-111Z"/><path class="cls-5" d="M486.28,1024.53h-3.62v-3.18h3.62Zm0-6.8h-3.62v-7.23h3.62Zm0-10.85h-3.62v-7.23h3.62Zm0-10.85h-3.62V988.8h3.62Zm0-10.85h-3.62V978h3.62Zm0-10.85h-3.62V967.1h3.62Zm0-10.84h-3.62v-7.24h3.62Zm0-10.85h-3.62V945.4h3.62Zm0-10.85h-3.62v-7.24h3.62Zm0-10.85h-3.62V923.7h3.62Zm0-10.85h-3.62v-7.24h3.62Zm-185.5-.57L299,916.39l6.26-3.62L307,915.9Zm9.39-5.43L308.36,911l6.27-3.62,1.81,3.14Zm176.11-4.85h-3.62V902h3.62Zm-166.71-.57-1.81-3.13,6.26-3.62,1.81,3.13Zm9.39-5.43-1.8-3.13,6.26-3.62,1.81,3.14Zm157.32-4.85h-3.62v-7.23h3.62Zm-147.92-.57-1.81-3.13,6.27-3.62,1.8,3.13Zm9.4-5.43L346,889.26l6.26-3.61,1.81,3.13Zm138.52-4.85h-3.62v-7.23h3.62ZM357.15,887l-1.81-3.13,6.27-3.62,1.81,3.13Zm9.4-5.43-1.81-3.13L371,874.8l1.81,3.13Zm119.73-4.85h-3.62v-7.23h3.62Zm-110.34-.57-1.8-3.13,6.26-3.62,1.81,3.13Zm9.4-5.43-1.81-3.13L389.8,864l1.8,3.13Zm100.94-4.85h-3.62v-7.23h3.62Zm-91.54-.57-1.81-3.13,6.26-3.62,1.81,3.13Zm9.39-5.42-1.81-3.14,6.27-3.61,1.81,3.13ZM486.28,855h-3.62v-7.23h3.62Zm-72.75-.57-1.81-3.13,6.26-3.62,1.81,3.13Zm9.39-5.42-1.8-3.14,6.26-3.61,1.81,3.13Zm63.36-4.86h-3.62v-7.23h3.62Zm-54-.57-1.81-3.13,6.26-3.62,1.81,3.13Zm9.4-5.42L439.91,835l6.26-3.61,1.81,3.13Zm44.56-4.86h-3.62v-7.23h3.62Zm-35.17-.57-1.81-3.13,6.27-3.62,1.81,3.13Zm9.4-5.42-1.81-3.14,6.26-3.61,1.81,3.13Zm25.77-4.86h-3.62v-7.23h3.62Zm-16.38-.57-1.81-3.13,6.27-3.62,1.81,3.14Zm9.4-5.42-1.81-3.13,6.08-3.51,2.71,1.56v.22H484.6l.77,1.35Z"/><rect class="cls-5" x="281.1" y="674.61" width="64.94" height="3.62" transform="translate(-425.94 581.55) rotate(-57.82)"/><rect class="cls-5" x="380.96" y="550.48" width="29.42" height="3.62" transform="translate(-272.13 427.32) rotate(-43.78)"/><path class="cls-5" d="M345.11,547.73l-3.25-1.58.35-.72,3.25,1.58Zm1.93-4-3.25-1.57,3.16-6.51,3.25,1.58Zm4.74-9.75-3.25-1.58,3.16-6.51,3.25,1.58Zm4.74-9.76-3.25-1.58,3.16-6.51,3.25,1.58Zm4.74-9.76L358,512.9l3.16-6.51,3.25,1.58Zm4.74-9.76-3.25-1.58,3.16-6.51,3.25,1.58Z"/><rect class="cls-5" x="271.25" y="495.81" width="3.62" height="67.24" transform="translate(-292.98 343.79) rotate(-44.56)"/><rect class="cls-5" x="200.76" y="614.13" width="87.12" height="3.62" transform="translate(-2.04 0.81) rotate(-0.19)"/><rect class="cls-5" x="429.61" y="573.68" width="3.62" height="66.33" transform="translate(-207.85 988.57) rotate(-85.43)"/><path class="cls-5" d="M85.47,525.72l-3.31-1.47,2.94-6.61,3.31,1.47Zm4.4-9.92-3.3-1.46,2.94-6.61,3.3,1.46Zm4.41-9.91L91,504.42l2.94-6.61,3.31,1.47Zm4.4-9.92-3.3-1.46,2.94-6.61,3.3,1.46Zm4.41-9.91-3.31-1.47,2.94-6.61,3.31,1.47Zm4.41-9.91-3.31-1.47,2.94-6.61,3.3,1.47Zm4.4-9.92-3.3-1.47,2.93-6.61,3.31,1.47Zm4.41-9.91L113,454.85l2.94-6.61,3.3,1.47Zm4.4-9.92-3.3-1.47,2.93-6.61,3.31,1.47Zm89-.36-1.57-.45.56-2-.15-.06.46-1,.12-.41h.06l1.63-3.68,3.31,1.47L211.87,445Zm-5.05-1.44-7-2,1-3.48,6.95,2Zm-10.43-3-7-2,1-3.48,7,2Zm-10.44-3-7-2,1-3.47,6.95,2Zm31.81-2.05-3.31-1.47,2.94-6.61,3.3,1.47Zm-90.49-.12L121.81,435l2.94-6.61,3.3,1.47Zm48.25-.81-7-2,1-3.48,7,2Zm-10.44-3-7-2,1-3.48,6.95,2Zm-10.43-3-7-2,1-3.47,7,2Zm-10.43-3-7-2,1-3.48,7,2ZM220,426.7l-3.3-1.47,2.93-6.61,3.31,1.47Zm-90.49-.13-3.3-1.47,2-4.44,2.15-1,2.28.65-1,3.48-.77-.22Zm94.9-9.79-3.31-1.47,2.94-6.61,3.3,1.47Zm4.4-9.91-3.3-1.47,2.93-6.61,3.31,1.47Zm4.41-9.92-3.31-1.47,2.94-6.61,3.3,1.47Zm4.4-9.91-3.3-1.47,2.93-6.61,3.31,1.47Zm4.4-9.92-3.3-1.47,2.94-6.61,3.3,1.47Zm83.37-4-3-2,3.92-6.08,3,2Zm-5.29-.51-5.84-4.27,2.14-2.92,5.84,4.27Zm-73.67-5.43-3.31-1.47,2.94-6.61,3.31,1.47Zm64.92-1L305.52,362l2.14-2.91,5.83,4.27Zm19.92-2.2-3-2,3.92-6.08,3,2Zm-28.67-4.21-5.84-4.28,2.14-2.92,5.83,4.28Zm-51.77-2.53-3.3-1.47,2.93-6.61,3.31,1.47Zm86.32-2.38-3-2,3.92-6.08,3,2Zm-43.31-1.51L288,349.13l2.14-2.92,5.83,4.28Zm-38.6-6-3.31-1.46,2.94-6.61,3.3,1.46ZM285.1,347l-5.83-4.28,2.14-2.91,5.83,4.27ZM343,345.8l-3-2,3.92-6.08,3,2Zm-66.69-5.22-5.83-4.28,2.14-2.92,5.83,4.28Zm-16.7-3.12-3.3-1.47,2.93-6.61,3.31,1.47Zm89.27-.78-3-2,3.92-6.08,3,2Zm-81.32-2.52-5.83-4.27L263.9,327l5.84,4.28Zm87.2-6.6-3-2,3.92-6.08,3,2Zm5.88-9.12-3-2,3.92-6.08,3,2Z"/><path class="cls-3" d="M892.56,861.23A300.34,300.34,0,0,1,680.12,348.35l5.11,5.12a292.32,292.32,0,1,0,93.9-63.13l-2.8-6.67A300.51,300.51,0,1,1,892.56,861.23Z"/><path class="cls-3" d="M892.51,878.69a317.88,317.88,0,0,1-8-635.66l.19,7.23A310.43,310.43,0,0,0,593.38,644.1a310.43,310.43,0,0,0,542.74,109.42,312.85,312.85,0,0,0,34-53.41l6.46,3.24a318.52,318.52,0,0,1-80.24,101.4,319.33,319.33,0,0,1-203.84,73.94Z"/><path class="cls-3" d="M891.48,896.89q-10.07,0-20.16-.59a337.27,337.27,0,0,1-212-91.48l5-5.25a327.26,327.26,0,0,0,96.89,63.51A330.48,330.48,0,1,0,934.39,231.63l1-7.17a337.66,337.66,0,0,1-43.86,672.43Z"/><path class="cls-4" d="M549.48,167.94h-124V92.69h124ZM432,161.43H543V99.2H432Z"/><circle class="cls-3" cx="154.39" cy="418.19" r="90.49" transform="translate(-270.37 553.47) rotate(-87.4)"/><circle class="cls-3" cx="73.87" cy="301.44" r="23.87" transform="translate(-231.2 358.52) rotate(-86.83)"/><rect class="cls-4" x="1308.57" y="953.29" width="117.53" height="74.14"/><rect class="cls-3" x="1038.07" y="69.01" width="286.85" height="143.08"/><rect class="cls-4" x="1561" y="95.94" width="143.42" height="71.54"/><path class="cls-6" d="M867.46,760.45l-11.32,66a268.18,268.18,0,0,0,115.22-5.22l-17.3-64.73A201.64,201.64,0,0,1,867.46,760.45Z"/><path class="cls-4" d="M703.47,518.4a202,202,0,0,1,86.94-127.13l-36.78-56A268.81,268.81,0,0,0,638,504.43q-1.44,6.79-2.54,13.58l66.15,10.6Q702.39,523.51,703.47,518.4Z"/><path class="cls-4" d="M780.42,723.12l-40.09,53.69A266.89,266.89,0,0,0,764.69,793l34.15-57.65A200.31,200.31,0,0,1,780.42,723.12Z"/><path class="cls-4" d="M711.55,630.91,648.7,654.13a271,271,0,0,0,62.18,97.13l47.4-47.34A203.88,203.88,0,0,1,711.55,630.91Z"/><path class="cls-4" d="M806.2,739.51l-31.7,59a269.51,269.51,0,0,0,32.37,14.62l23.62-62.7A201.66,201.66,0,0,1,806.2,739.51Z"/><path class="cls-4" d="M817.48,816.88q7,2.29,14.27,4.24l17.37-64.7q-5.4-1.44-10.67-3.17Z"/><path class="cls-6" d="M972,750.82l23.21,62.85a269.56,269.56,0,0,0,167-183l-64.7-17.38A202.57,202.57,0,0,1,972,750.82Z"/><path class="cls-4" d="M890,358.26l-3.86-66.89a269.38,269.38,0,0,0-35.47,4.41l12.68,65.8A201.51,201.51,0,0,1,890,358.26Z"/><path class="cls-4" d="M700.38,537l-66.53-7.81a268.06,268.06,0,0,0,3,82.46L702.62,599A201.29,201.29,0,0,1,700.38,537Z"/><path class="cls-4" d="M944,362.43a202.2,202.2,0,0,1,134.75,99.5l58.72-32.24A270.19,270.19,0,0,0,897.47,291l1,67A203.61,203.61,0,0,1,944,362.43Z"/><path class="cls-4" d="M821.51,374.5,795,313a272.09,272.09,0,0,0-31.8,16.29l34.4,57.48A203.74,203.74,0,0,1,821.51,374.5Z"/><path class="cls-4" d="M704.41,607.32,639.2,622.74c.61,2.54,1.24,5.07,1.92,7.58L705.85,613Q705.09,610.18,704.41,607.32Z"/><path class="cls-4" d="M805.49,308.7l23.9,62.59a203.67,203.67,0,0,1,25.66-7.92l-15.42-65.2A270.2,270.2,0,0,0,805.49,308.7Z"/><path class="cls-4" d="M1171.4,555.75l-67,1.42a203.24,203.24,0,0,1-2.93,37.74l66,11.32A269.62,269.62,0,0,0,1171.4,555.75Z"/><path class="cls-4" d="M1103.26,538.75l66.57-7.62a269,269,0,0,0-21.23-79l-61.46,26.66A201.94,201.94,0,0,1,1103.26,538.75Z"/><polygon class="cls-7" points="1390.39 656.36 1375.27 662.21 1383.19 668.84 1328.55 734.14 1288.27 700.44 1217.83 784.62 1226.06 791.51 1289.61 715.56 1328.88 748.42 1329.89 749.26 1391.42 675.72 1399.35 682.36 1402.43 666.44 1405.52 650.52 1390.39 656.36"/><rect class="cls-6" x="1227.18" y="824.64" width="31.95" height="95.94"/><rect class="cls-6" x="1271.78" y="770.04" width="31.95" height="151.6"/><rect class="cls-6" x="1316.45" y="792.88" width="31.95" height="128.75"/><rect class="cls-6" x="1361.13" y="741.53" width="31.95" height="180.1"/><path class="cls-4" d="M586.35,843.63a65.85,65.85,0,0,0-41.9-61.33,57.36,57.36,0,1,0-68,0,65.85,65.85,0,0,0-41.91,61.33v41.15h59.37l-1.16-2,8.84-61.55-8.84-19.73,8.84-19.72H519.3l8.84,19.72-8.84,19.73,8.84,61.55-1.16,2h59.37Z"/><polygon class="cls-7" points="519.3 821.25 528.14 801.52 519.3 781.8 501.61 781.8 492.77 801.52 501.61 821.25 492.77 882.8 493.93 884.78 509.1 910.73 511.81 910.73 526.98 884.78 528.14 882.8 519.3 821.25"/><path class="cls-8" d="M381.59,106.56A61.47,61.47,0,0,0,338.68,124l42.91,44.29Z"/><path class="cls-6" d="M336,140.69a61.62,61.62,0,0,0-7.41,80L378.87,185Z"/><path class="cls-4" d="M455.42,187.64a63.84,63.84,0,0,0-.56-8.11c-.13-1-.29-2-.47-3a60.13,60.13,0,0,0-1.49-6.3c-.26-.89-.53-1.77-.83-2.64q-1-2.86-2.21-5.59c-.36-.79-.73-1.57-1.12-2.35q-1.29-2.57-2.8-5c-.44-.71-.89-1.41-1.36-2.1q-1.74-2.56-3.72-4.94c-.53-.63-1.06-1.25-1.61-1.86-1.23-1.37-2.53-2.67-3.88-3.93-.59-.55-1.2-1.1-1.82-1.63-1.41-1.21-2.86-2.36-4.37-3.44-.67-.49-1.35-1-2-1.42q-2.37-1.58-4.87-2.93c-.76-.41-1.52-.8-2.29-1.18a62.72,62.72,0,0,0-6.09-2.57c-.86-.31-1.72-.61-2.59-.88a61.93,61.93,0,0,0-6.2-1.6c-1-.2-2-.38-2.94-.53A61.75,61.75,0,0,0,395,125c-.84,0-1.68-.07-2.53-.07a1.22,1.22,0,0,0-1.22,1.23v61.05l-4.36,3.09L375,198.7l-26.79,19-6.75,4.79a1.17,1.17,0,0,0-.5.79,1.21,1.21,0,0,0,.21.92c.07.1.16.2.23.31,1.09,1.51,2.25,2.95,3.46,4.35.53.62,1.07,1.23,1.63,1.83,1.26,1.35,2.57,2.63,3.94,3.86.61.55,1.23,1.08,1.86,1.6a59.15,59.15,0,0,0,4.93,3.74c.69.47,1.41.9,2.12,1.35,1.62,1,3.29,1.94,5,2.8.77.39,1.55.77,2.34,1.12,1.83.83,3.7,1.55,5.6,2.2.87.29,1.75.58,2.63.83a61.28,61.28,0,0,0,6.29,1.52c1,.18,2,.32,3,.46a64.36,64.36,0,0,0,8.11.56h.17c1.14,0,2.26,0,3.38-.09a62.45,62.45,0,0,0,8.93-1.12c1.54-.31,3.06-.68,4.56-1.1A62.09,62.09,0,0,0,434.06,235a63.41,63.41,0,0,0,13.77-17.23,62.51,62.51,0,0,0,5.28-13.08c.42-1.5.79-3,1.1-4.57a62.13,62.13,0,0,0,1.12-8.92c.06-1.12.09-2.24.09-3.38Z"/><path class="cls-9" d="M534.67,394.39l11.79,5.37,9.28-20.4L544,374s-3.44-3.16-3.89-11.46c.15-1.66.22-3.33.22-5,.87-8.85,4.75-12,4.75-12l12.13-4.54-7.86-21-12.13,4.54s-5.17.22-11.83-6.27q-.71-.79-1.44-1.56c-6.32-7.26-5.73-12.56-5.73-12.56l5.36-11.79-20.4-9.28-5.36,11.79s-3.61,3.93-13.24,3.93c-.72,0-1.44-.05-2.17-.06h-.61c-8.85-.87-11.95-4.75-11.95-4.75l-4.54-12.12-21,7.86,4.54,12.13s.22,5.16-6.27,11.82c-.53.47-1.05.95-1.56,1.45-7.26,6.32-12.56,5.73-12.56,5.73l-11.79-5.37-9.28,20.4,11.79,5.37s3.92,3.6,3.93,13.23c0,.73-.06,1.45-.06,2.17v0h0c0,.19,0,.39,0,.59-.87,8.85-4.75,12-4.75,12l-12.13,4.54,7.87,21,12.12-4.54s5.17-.22,11.83,6.27c1,1.08,2,2.12,3,3.13,5.12,6.55,4.6,11.19,4.6,11.19l-5.36,11.79,20.4,9.28L466,420.13s4.14-4.51,15.42-3.86l-.05,0c9.35.73,12.6,4.8,12.6,4.8l4.54,12.13,21-7.87-4.55-12.12s-.26-6.13,8.17-13.64h-.24C529.72,393.84,534.67,394.39,534.67,394.39Zm-67.44-5.28a34.8,34.8,0,1,1,46.09-17.26A34.84,34.84,0,0,1,467.23,389.11Z"/><path class="cls-7" d="M587.37,308.49l4.88,4.54,7.85-8.43-4.88-4.54s-1.16-2.1,0-6.22c.34-.79.65-1.59.92-2.4,1.86-4.17,4.26-5.05,4.26-5.05l6.65-.24-.41-11.51-6.65.23s-2.56-.73-4.75-5c-.14-.34-.29-.67-.45-1-1.9-4.57-.74-7.06-.74-7.06l4.53-4.87-8.43-7.85L585.59,254s-2.4,1.33-7.1-.24l-1-.38h0l-.29-.1c-4.17-1.87-5-4.27-5-4.27l-.24-6.65-11.51.41.23,6.66s-.73,2.55-5,4.74c-.34.14-.67.29-1,.45-4.57,1.9-7.06.75-7.06.75l-4.87-4.54-7.85,8.43,4.87,4.54s1.33,2.4-.24,7.1c-.13.34-.26.69-.38,1.05h0c0,.1-.07.19-.1.29-1.87,4.18-4.27,5.06-4.27,5.06l-6.65.23.41,11.52,6.66-.24s2.55.73,4.74,5c.29.69.61,1.36,1,2,1.43,4,.42,6.21.42,6.21l-4.54,4.87,8.43,7.85,4.54-4.87s2.76-1.53,8.15.62l0,0c4.44,1.88,5.36,4.4,5.36,4.4l.24,6.65,11.52-.41-.24-6.66s.87-3,6.2-5.32l-.11,0C585.05,307.42,587.37,308.49,587.37,308.49Zm-32-13.56a17.89,17.89,0,1,1,25.29-.91A17.92,17.92,0,0,1,555.35,294.93Z"/><rect class="cls-6" x="1192.68" y="119.24" width="358.74" height="235.24"/><rect class="cls-10" x="1223.77" y="151.39" width="296.56" height="170.94"/><polygon class="cls-8" points="1389.05 307.02 1367.72 180.78 1340.18 239.68 1276.39 239.68 1276.39 234.61 1336.96 234.61 1370.01 163.94 1390.13 283 1406.77 219.63 1467.72 219.63 1467.72 224.69 1410.67 224.69 1389.05 307.02"/><rect class="cls-5" x="1318.56" y="354.48" width="106.98" height="30.23"/><rect class="cls-6" x="1287.15" y="384.71" width="169.8" height="16.3"/><path class="cls-11" d="M1533.19,336.25H1210.91V137.47h322.28Zm-320.47-1.81h318.67V139.28H1212.72Z"/><circle class="cls-1" cx="336.4" cy="601.32" r="41.67" transform="translate(-101.89 69.67) rotate(-10.28)"/><path class="cls-1" d="M496.11,611.27a12.87,12.87,0,1,0-12.86,12.87A12.86,12.86,0,0,0,496.11,611.27Z"/><path class="cls-7" d="M336.49,663.59h-.09V643a41.67,41.67,0,1,1,0-83.33V539.05a62.29,62.29,0,0,1,61.77,54.34,62.28,62.28,0,1,0-15.68,49.8A62.13,62.13,0,0,1,336.49,663.59Z"/><path class="cls-12" d="M336.4,539.05v20.61a41.67,41.67,0,0,1,0,83.33v20.6h.09a62.13,62.13,0,0,0,46-20.4c.33-.37.67-.74,1-1.12a62,62,0,0,0,15.19-40.75,63,63,0,0,0-.5-7.93A62.29,62.29,0,0,0,336.4,539.05Z"/><path class="cls-7" d="M500.23,611.27a17,17,0,0,0-17-17v-8.4h0a25.38,25.38,0,0,0,0,50.76h0v-8.4A17,17,0,0,0,500.23,611.27Zm-29.85,0a12.87,12.87,0,1,1,12.87,12.87A12.87,12.87,0,0,1,470.38,611.27Z"/><path class="cls-7" d="M507.49,603.72a26,26,0,0,1,.8,3.41A26,26,0,0,0,507.49,603.72Z"/><path class="cls-7" d="M506.63,601.39c.32.75.6,1.52.85,2.31C507.23,602.91,507,602.14,506.63,601.39Z"/><path class="cls-7" d="M506.13,600.27c.09.19.17.39.26.59C506.3,600.66,506.22,600.46,506.13,600.27Z"/><path class="cls-7" d="M508.34,615.14a25.34,25.34,0,0,1-3.83,10A25.34,25.34,0,0,0,508.34,615.14Z"/><path class="cls-12" d="M508.29,607.13a26,26,0,0,0-.8-3.41v0c-.25-.79-.53-1.56-.85-2.31-.07-.18-.16-.35-.24-.53s-.17-.4-.26-.59a25.39,25.39,0,0,0-22.88-14.38h0v8.4a17,17,0,0,1,0,34v8.4h0a25.41,25.41,0,0,0,25.09-21.51,25.92,25.92,0,0,0,.29-3.87c0-.87-.05-1.74-.13-2.59C508.44,608.16,508.37,607.64,508.29,607.13Z"/><path class="cls-8" d="M376.23,503.48A21.44,21.44,0,1,0,354.79,482,21.44,21.44,0,0,0,376.23,503.48Z"/><path class="cls-6" d="M287.88,696.17A27.84,27.84,0,1,0,315.72,724,27.85,27.85,0,0,0,287.88,696.17Z"/><circle class="cls-6" cx="253.68" cy="509.68" r="11.55" transform="translate(-110.31 71.92) rotate(-13.28)"/><circle class="cls-6" cx="408.04" cy="538.32" r="11.55" transform="translate(-145.54 925.4) rotate(-87.8)"/><path class="cls-7" d="M189.07,598.18a15.76,15.76,0,1,0,15.75,15.76A15.75,15.75,0,0,0,189.07,598.18Z"/><rect class="cls-5" x="1461.13" y="848.83" width="135.42" height="176.05"/><rect class="cls-10" x="1476.98" y="862.54" width="103.71" height="48.43"/><polygon class="cls-10" points="1520.98 933.79 1507.84 933.79 1507.84 920.65 1496.7 920.65 1496.7 933.79 1483.56 933.79 1483.56 944.93 1496.7 944.93 1496.7 958.07 1507.84 958.07 1507.84 944.93 1520.98 944.93 1520.98 933.79"/><polygon class="cls-10" points="1519.43 981.07 1511.56 973.19 1502.27 982.48 1492.98 973.19 1485.1 981.07 1494.39 990.36 1485.1 999.65 1492.98 1007.53 1502.27 998.24 1511.56 1007.53 1519.43 999.65 1510.15 990.36 1519.43 981.07"/><rect class="cls-10" x="1537.27" y="933.79" width="37.42" height="11.14"/><rect class="cls-10" x="1537.27" y="984.79" width="37.42" height="11.14" transform="translate(-244.58 1390.2) rotate(-45)"/><path class="cls-10" d="M1548.68,973.37a6.86,6.86,0,1,1-9.69,0A6.86,6.86,0,0,1,1548.68,973.37Z"/><path class="cls-10" d="M1573,997.65a6.86,6.86,0,1,1-9.69,0A6.86,6.86,0,0,1,1573,997.65Z"/><rect class="cls-6" x="660.17" y="153.86" width="25.16" height="16.61"/><rect class="cls-4" x="660.17" y="131.71" width="25.16" height="16.61"/><rect class="cls-13" x="660.17" y="176.83" width="25.16" height="51.87"/><rect class="cls-6" x="628.43" y="153.86" width="25.16" height="16.61"/><rect class="cls-6" x="628.43" y="131.71" width="25.16" height="16.61"/><rect class="cls-4" x="628.43" y="109.73" width="25.16" height="16.61"/><rect class="cls-4" x="628.43" y="87.59" width="25.16" height="16.61"/><rect class="cls-13" x="628.43" y="176.83" width="25.16" height="51.87"/><rect class="cls-6" x="692.75" y="176.42" width="25.16" height="16.61"/><rect class="cls-4" x="692.75" y="154.27" width="25.16" height="16.61"/><rect class="cls-13" x="721.31" y="212.08" width="25.16" height="16.61"/><rect class="cls-13" x="692.75" y="199.38" width="25.16" height="29.31"/><path class="cls-14" d="M80.7,515.54a9.95,9.95,0,1,0,12.56,6.33A9.95,9.95,0,0,0,80.7,515.54Z"/><path class="cls-6" d="M125.44,412.83A9.95,9.95,0,1,0,138,419.15,9.94,9.94,0,0,0,125.44,412.83Z"/><path class="cls-6" d="M206.56,434.05a9.95,9.95,0,1,0,12.56,6.33A10,10,0,0,0,206.56,434.05Z"/><path class="cls-8" d="M258.85,318.35a9.95,9.95,0,1,0,12.56,6.33A9.95,9.95,0,0,0,258.85,318.35Z"/><path class="cls-6" d="M320,362.33a9.94,9.94,0,1,0,12.56,6.32A9.93,9.93,0,0,0,320,362.33Z"/><path class="cls-6" d="M372.6,308.27a9.95,9.95,0,1,0-6.32,12.56A9.95,9.95,0,0,0,372.6,308.27Z"/><path class="cls-6" d="M166.86,730.63H126c-22.06,0-21.59,2.82-19.71,13.14s26.75,23.57,26.75,23.57L143.49,779l16.33-11.63s24.88-13.24,26.75-23.57S188.92,730.63,166.86,730.63Z"/><path class="cls-10" d="M143.46,779.22,133,767.48a131,131,0,0,1-12.67-7.9c-8.6-6.14-13.36-11.44-14.15-15.77-.86-4.76-1.43-7.9.32-10,2.07-2.48,7.19-3.36,19.57-3.36h40.83c12.38,0,17.5.88,19.57,3.36,1.76,2.1,1.19,5.24.32,10-.78,4.33-5.55,9.63-14.15,15.77a133.52,133.52,0,0,1-12.69,7.92ZM126,730.81c-12.1,0-17.33.88-19.29,3.23-1.65,2-1.09,5.05-.24,9.7,1.84,10.12,26.41,23.31,26.66,23.44l.05,0,10.31,11.51,16.2-11.54c.27-.14,24.84-13.33,26.68-23.45.84-4.65,1.4-7.72-.25-9.7-2-2.35-7.19-3.23-19.29-3.23Z"/><path class="cls-6" d="M205.27,818.08c0,28.14-26.33,51-58.82,51s-58.83-22.82-58.83-51,26.34-66.69,58.83-66.69S205.27,789.93,205.27,818.08Z"/><path class="cls-10" d="M146.45,874.46c-17,0-33-5.77-45.15-16.25C89,847.54,82.2,833.29,82.2,818.08c0-15.36,6.89-33.05,18.43-47.31a73.4,73.4,0,0,1,20.21-17.62,49.19,49.19,0,0,1,51.21,0,73.11,73.11,0,0,1,20.21,17.62c11.54,14.26,18.44,32,18.44,47.31,0,15.21-6.79,29.46-19.11,40.13C179.5,868.69,163.46,874.46,146.45,874.46Zm0-117.65c-7.68,0-22.75,2.7-37.38,20.78-9.88,12.21-16,27.73-16,40.49,0,25.11,24,45.54,53.4,45.54s53.4-20.43,53.4-45.54c0-12.76-6.14-28.28-16-40.49C169.2,759.51,154.13,756.81,146.45,756.81Z"/><path class="cls-10" d="M163.69,810.48c-2-1.6-5.1-2.89-9.17-3.84l-3.38-.8V792.48c.23.09.45.19.67.3a7.6,7.6,0,0,1,4.28,6.8h10.65q-.3-8.45-6.28-12.89a22.09,22.09,0,0,0-9.32-4v-7.78h-9.39v7.55q-7.08.81-11.18,4.49a15.24,15.24,0,0,0-5.24,11.83q0,7.82,5.36,11.48,3.06,2.12,11.06,3.94v14.41a8.73,8.73,0,0,1-4.69-2.74,10.86,10.86,0,0,1-2-5.43H124.46q0,8.28,6,13a22.82,22.82,0,0,0,11.29,4.4v7.65h9.39V838q7.26-.81,11.67-4.58a15.19,15.19,0,0,0,5.62-12.07Q168.43,814.23,163.69,810.48Zm-25.53-8.23a4.55,4.55,0,0,1-2.58-4.25,5.46,5.46,0,0,1,2.62-4.82,10.11,10.11,0,0,1,3.55-1.4v11.78A18.48,18.48,0,0,1,138.16,802.25Zm14.85,26a13,13,0,0,1-1.87.49V816.36a17.8,17.8,0,0,1,4.28,1.72,4.52,4.52,0,0,1,2.32,4.06Q157.74,826.64,153,828.29Z"/><path class="cls-6" d="M1678.26,311.79q-5.43-4.29-16.33-6.86l-6-1.41V279.73c.41.16.81.35,1.19.54q7.1,3.59,7.62,12.11h19q-.51-15.06-11.18-23a39.46,39.46,0,0,0-16.59-7.1V248.46H1639.2v13.45q-12.62,1.44-19.91,8A27.16,27.16,0,0,0,1610,291q0,13.9,9.54,20.43,5.45,3.78,19.7,7v25.66a15.63,15.63,0,0,1-8.35-4.87q-2.68-3.21-3.6-9.68h-18.83q0,14.75,10.68,23.16,7.89,6.22,20.1,7.84v13.63h16.72V360.71q12.93-1.44,20.78-8.14a27.11,27.11,0,0,0,10-21.5Q1686.7,318.46,1678.26,311.79Zm-45.45-14.67a8.12,8.12,0,0,1-4.6-7.56,9.75,9.75,0,0,1,4.67-8.59,18.14,18.14,0,0,1,6.32-2.49v21A32.82,32.82,0,0,1,1632.81,297.12Zm26.43,46.38a23.22,23.22,0,0,1-3.32.86V322.24a32.21,32.21,0,0,1,7.62,3.07,8.07,8.07,0,0,1,4.14,7.24Q1667.68,340.56,1659.24,343.5Z"/><polygon class="cls-6" points="754.37 914.69 729.54 914.69 705.99 954.7 682.29 914.69 657.32 914.69 687.72 965.27 676.37 965.27 676.37 981.91 694.5 981.91 694.5 984.98 676.37 984.98 676.37 1001.62 694.5 1001.62 694.5 1023 716.77 1023 716.77 1001.62 735.32 1001.62 735.32 984.98 716.77 984.98 716.77 981.91 735.32 981.91 735.32 965.27 723.9 965.27 754.37 914.69"/><path class="cls-6" d="M176.37,226.16q-1.2,9.71-6.67,15.64t-15.16,5.93A24.76,24.76,0,0,1,142.4,245a23.36,23.36,0,0,1-8.09-7.35c-.35-.53-.69-1.07-1-1.62H152V220.19H128.6c-.09-1-.15-1.94-.18-2.92H152V201.46H130.27a32,32,0,0,1,4-8.8,23,23,0,0,1,8.09-7.41,24.76,24.76,0,0,1,12.14-2.77,22.15,22.15,0,0,1,7.48,1.28,21.91,21.91,0,0,1,6.4,3.58,21.14,21.14,0,0,1,4.72,5.32,17.44,17.44,0,0,1,2.43,6.67h20.49a38.81,38.81,0,0,0-4.59-14.83,36,36,0,0,0-9.23-10.85A40.83,40.83,0,0,0,169.57,167a51.64,51.64,0,0,0-34.92,1.62,42.52,42.52,0,0,0-14.89,10.78,48.19,48.19,0,0,0-9.31,16.11,53.82,53.82,0,0,0-1.71,6H96v15.81h11.21c0,1,.08,2,.15,2.92H96V236h14.75a46.31,46.31,0,0,0,9,15,42.43,42.43,0,0,0,14.89,10.59,49.42,49.42,0,0,0,19.89,3.84,47.38,47.38,0,0,0,16.31-2.7,37.7,37.7,0,0,0,12.94-7.82,39.17,39.17,0,0,0,8.9-12.4,48.85,48.85,0,0,0,4.17-16.31Z"/><path class="cls-15" d="M306.16,869.79c-2.6-.56-5.22-1.15-7.79-1.75l1.25-5.28c2.53.6,5.11,1.18,7.67,1.73Z"/><path class="cls-4" d="M326.62,908.49a26.54,26.54,0,1,0-31.46,0,30.49,30.49,0,0,0-19.38,28.38v19H346v-19A30.48,30.48,0,0,0,326.62,908.49Z"/><path class="cls-8" d="M310.89,860.62a26.52,26.52,0,0,0-26.25,22.86c.53,0,19.87.08,26.25-11.82,0,0,6.24,11.78,26.25,11.82A26.51,26.51,0,0,0,310.89,860.62Z"/><path class="cls-4" d="M506.67,996.76a28.86,28.86,0,0,0-10.08-6.7,24.89,24.89,0,0,0,10.15-20,24.6,24.6,0,0,0-.27-3.46c-3.1-.06-19-.88-24.53-10.88-5.58,10-21.42,10.82-24.52,10.88a24.6,24.6,0,0,0-.27,3.46,24.86,24.86,0,0,0,10.15,20,28.7,28.7,0,0,0-18.21,26.64v17.88h65.7V1016.7A28.47,28.47,0,0,0,506.67,996.76Z"/><path class="cls-7" d="M453.93,966.49v18A25.58,25.58,0,0,0,457.18,997a28.54,28.54,0,0,1,10-6.67,24.73,24.73,0,0,1-10.09-19.93,25.9,25.9,0,0,1,.26-3.44c3.09-.07,18.85-.88,24.4-10.83V945.58h0v-.75h0v-4.09h-2.09A25.75,25.75,0,0,0,453.93,966.49Z"/><path class="cls-7" d="M484.21,940.73h-2.44v4.09H482l.17,0-.23,0h-.17v.75h0v10.51l.13-.21.05.08a.35.35,0,0,0,.05-.08s3.95,6.63,14.47,9.61l.25.07c.4.11.8.22,1.22.32s1.14.25,1.74.36l.85.15c.76.12,1.54.23,2.36.3l.49,0c.95.08,1.94.14,3,.16h.17a24.46,24.46,0,0,1,.27,3.45,24.71,24.71,0,0,1-10.1,19.93,28.53,28.53,0,0,1,10,6.6l.06.07A25.58,25.58,0,0,0,510,984.45v-18A25.76,25.76,0,0,0,484.21,940.73Z"/><polygon class="cls-6" points="840.54 56.31 840.54 66.11 933.41 66.11 933.41 181.89 942.49 181.89 942.49 56.31 840.54 56.31"/><polygon class="cls-4" points="912.84 198.78 823.97 198.78 823.97 69.01 930.52 69.01 930.52 179.22 912.84 198.78"/><polygon class="cls-6" points="930.52 179.22 912.84 179.22 912.84 198.78 930.52 179.22"/><rect class="cls-5" x="856.39" y="86.35" width="64.45" height="1.81"/><rect class="cls-5" x="832.42" y="93.28" width="88.43" height="1.81"/><rect class="cls-5" x="832.42" y="101.03" width="88.43" height="1.81"/><rect class="cls-5" x="832.42" y="145.82" width="88.43" height="1.81"/><rect class="cls-5" x="832.42" y="153.57" width="88.43" height="1.81"/><rect class="cls-5" x="832.42" y="161.75" width="88.43" height="1.81"/><rect class="cls-5" x="832.42" y="169.5" width="88.43" height="1.81"/><rect class="cls-5" x="832.42" y="177.74" width="70.9" height="1.81"/><rect class="cls-7" x="832.42" y="111.06" width="56.2" height="27.66"/><rect class="cls-8" x="893.62" y="111.06" width="25.45" height="27.66"/><polygon class="cls-6" points="983.72 1022.85 893.77 1022.85 908.41 983.25 969.08 983.25 983.72 1022.85"/><polygon class="cls-6" points="1076.48 1022.85 986.53 1022.85 1001.17 983.25 1061.83 983.25 1076.48 1022.85"/><polygon class="cls-6" points="1169.24 1022.85 1079.29 1022.85 1093.93 983.25 1154.59 983.25 1169.24 1022.85"/><polygon class="cls-6" points="1030.1 978.23 940.15 978.23 954.79 938.63 1015.46 938.63 1030.1 978.23"/><polygon class="cls-6" points="1122.86 978.23 1032.91 978.23 1047.55 938.63 1108.21 938.63 1122.86 978.23"/><polygon class="cls-6" points="1077.88 935.09 987.93 935.09 1002.58 895.49 1063.24 895.49 1077.88 935.09"/><path class="cls-5" d="M1618.8,705.94a47.46,47.46,0,1,0,13.91,33.57A47.15,47.15,0,0,0,1618.8,705.94ZM1587,783.47V776h-3.48v7.52a44.06,44.06,0,0,1-42.22-42.22h7.52v-3.48h-7.52a44.07,44.07,0,0,1,42.22-42.23v7.53H1587v-7.53a44.06,44.06,0,0,1,42.22,42.23h-7.52v3.48h7.52A44.05,44.05,0,0,1,1587,783.47Z"/><polygon class="cls-5" points="1586.97 708.73 1583.49 708.73 1583.49 741.25 1598.73 741.25 1598.73 737.77 1586.97 737.77 1586.97 708.73"/><polygon class="cls-7" points="1053.31 443.36 1009.7 418.19 966.1 443.36 1009.7 468.54 1053.31 443.36"/><polygon class="cls-6" points="966.1 443.36 966.1 720.92 1009.7 746.1 1009.7 468.54 966.1 443.36"/><polygon class="cls-4" points="1009.7 468.54 1009.7 746.1 1009.7 746.1 1053.31 720.92 1053.31 443.36 1009.7 468.54"/><polygon class="cls-8" points="987.9 649.25 944.3 624.07 900.69 649.25 944.3 674.42 987.9 649.25"/><polygon class="cls-6" points="900.69 649.25 900.69 760.9 944.3 786.07 944.3 674.42 900.69 649.25"/><polygon class="cls-4" points="944.3 674.42 944.3 786.07 944.3 786.07 987.9 760.9 987.9 649.25 944.3 674.42"/><polygon class="cls-7" points="922.5 558.92 878.89 533.75 835.29 558.92 878.89 584.1 922.5 558.92"/><polygon class="cls-6" points="835.29 558.92 835.29 800.87 878.89 826.05 878.89 584.1 835.29 558.92"/><polygon class="cls-4" points="878.89 584.1 878.89 826.05 878.89 826.05 922.5 800.87 922.5 558.92 878.89 584.1"/><polygon class="cls-8" points="857.09 729.2 813.49 704.02 769.88 729.2 813.49 754.37 857.09 729.2"/><polygon class="cls-6" points="769.88 729.2 769.88 840.85 813.49 866.03 813.49 754.37 769.88 729.2"/><polygon class="cls-4" points="813.49 754.37 813.49 866.03 813.49 866.03 857.09 840.85 857.09 729.2 813.49 754.37"/><polygon class="cls-6" points="971.79 296.64 945.62 317.09 964.92 324.03 895.89 478.37 797.76 443.09 708.78 642.04 728.84 649.25 809.11 469.75 904.79 504.15 907.24 505.03 984.97 331.24 1004.29 338.19 1001.13 307.19 997.97 276.2 971.79 296.64"/><path class="cls-1" d="M1224.7,569.28l3.35-3.35a6.15,6.15,0,0,0-9.54,3.35Z"/><path class="cls-1" d="M1506.3,536.83a6.19,6.19,0,0,0,5.69,3.77,6.12,6.12,0,0,0,3.66-1.22l-3.93-2.55Z"/><path class="cls-1" d="M1402.6,511.14v-3.62h5.85a6.17,6.17,0,1,0,.1,3.62Z"/><path class="cls-1" d="M1574.4,512.22a6.17,6.17,0,0,0-5.45-9.06,6.19,6.19,0,0,0-5.9,4.36h6.65Z"/><path class="cls-1" d="M1320.3,568.2a6.17,6.17,0,1,0,11.34,4.7H1325Z"/><path class="cls-1" d="M1331.64,569.28a6.17,6.17,0,0,0-8.79-3.64l3.64,3.64Z"/><path class="cls-1" d="M1563.05,511.14a6.19,6.19,0,0,0,5.9,4.36,6.1,6.1,0,0,0,2.89-.72l-3.64-3.64Z"/><path class="cls-1" d="M1218.61,572.9a6.16,6.16,0,1,0,11.64-4l-4,4Z"/><path class="cls-1" d="M1517.8,536.46a5.94,5.94,0,0,0,.36-2,6.17,6.17,0,0,0-12.22-1.22h6.85Z"/><path class="cls-1" d="M1670,511.14l-3.35,3.35a6.11,6.11,0,0,0,3.61,1.17,6.18,6.18,0,0,0,5.94-4.52Z"/><path class="cls-1" d="M1676.09,507.52a6.17,6.17,0,1,0-11.65,4.05l4-4.05Z"/><path class="cls-5" d="M1446.05,507.52h-35.34a8.5,8.5,0,0,1,.23,2,8.1,8.1,0,0,1-.16,1.65H1446a7.45,7.45,0,0,1-.19-1.65A7.55,7.55,0,0,1,1446.05,507.52Z"/><path class="cls-5" d="M1504.25,483.42H1484.5a7.24,7.24,0,0,1,0,3.62h19.75a6.95,6.95,0,0,1,0-3.62Z"/><path class="cls-5" d="M1471,488.55l-14.55,14.56a7.2,7.2,0,0,1,2.65,2.46l14.31-14.31A7.33,7.33,0,0,1,1471,488.55Z"/><path class="cls-5" d="M1531.23,502.92l-13.83-13.83a7.19,7.19,0,0,1-2.62,2.49l13.77,13.77A7.2,7.2,0,0,1,1531.23,502.92Z"/><path class="cls-5" d="M1594.7,532.52,1576,513.8a8.31,8.31,0,0,1-2.55,2.56l18.75,18.75A7.19,7.19,0,0,1,1594.7,532.52Z"/><path class="cls-5" d="M1574.4,512.22l-4.7-4.7h-6.65a6.2,6.2,0,0,0,0,3.62h5.15l3.64,3.64A6.19,6.19,0,0,0,1574.4,512.22Z"/><path class="cls-5" d="M1715.58,507.52h-37.23a8.5,8.5,0,0,1,.24,2,8.1,8.1,0,0,1-.17,1.65h37.07a7.45,7.45,0,0,1-.19-1.65A7.16,7.16,0,0,1,1715.58,507.52Z"/><path class="cls-5" d="M1560.81,507.52h-19.18a6.95,6.95,0,0,1,0,3.62h19.18a8.29,8.29,0,0,1,0-3.62Z"/><path class="cls-5" d="M1633.29,536.9H1605.5a7.2,7.2,0,0,1,0,3.61h27.79a6.91,6.91,0,0,1,0-3.61Z"/><path class="cls-5" d="M1676.19,511.14a6.44,6.44,0,0,0,.23-1.65,6.12,6.12,0,0,0-.33-2h-7.6l-4,4.05a6.22,6.22,0,0,0,2.2,2.92l3.35-3.35Z"/><path class="cls-5" d="M1662.79,513.22l-19.08,19.08a7.23,7.23,0,0,1,2.67,2.45L1665.09,516A8.39,8.39,0,0,1,1662.79,513.22Z"/><path class="cls-5" d="M1402.6,511.14h6a6.44,6.44,0,0,0,.22-1.65,6.12,6.12,0,0,0-.32-2h-5.85Z"/><path class="cls-5" d="M1544.32,553.64l-24.65-16a8.38,8.38,0,0,1-2.1,3l24.84,16.09A7.33,7.33,0,0,1,1544.32,553.64Z"/><path class="cls-5" d="M1356.5,528.12l-17.79-20.55a7.37,7.37,0,0,1-2.37,2.79l17.56,20.28A7.3,7.3,0,0,1,1356.5,528.12Z"/><path class="cls-5" d="M1325.37,501.93h-64a7.13,7.13,0,0,1,.2,1.67,7.35,7.35,0,0,1-.27,1.95H1325a7,7,0,0,1-.1-1.13A7.14,7.14,0,0,1,1325.37,501.93Z"/><path class="cls-5" d="M1503.73,533.21h-136.5a8.14,8.14,0,0,1,.11,1.22,7.33,7.33,0,0,1-.42,2.4H1504a8.3,8.3,0,0,1-.36-2.4A9.87,9.87,0,0,1,1503.73,533.21Z"/><path class="cls-5" d="M1517.8,536.46l-5-3.25h-6.85a6,6,0,0,0,.36,3.62h5.42l3.93,2.55A6.17,6.17,0,0,0,1517.8,536.46Z"/><path class="cls-5" d="M1247.7,506.55l-27.83,27.31.46.45-2.56,2.56-.48-.48L1189.19,564a7.19,7.19,0,0,1,3.2,1.92L1250,509.39A7.35,7.35,0,0,1,1247.7,506.55Z"/><path class="cls-5" d="M1220.33,534.31l-.46-.45-26.37-26.37a7.23,7.23,0,0,1-2.31,2.8l26.1,26.1.48.48Z"/><path class="cls-5" d="M1231.9,567.2,1251,548.12a7.36,7.36,0,0,1-2.67-2.44l-18.7,18.7A8.48,8.48,0,0,1,1231.9,567.2Z"/><path class="cls-5" d="M1261.41,543.53h27.79a6.95,6.95,0,0,1,0-3.62h-27.79a7.24,7.24,0,0,1,0,3.62Z"/><path class="cls-5" d="M1300,547.9l18.71,18.72a8.45,8.45,0,0,1,2.56-2.56l-18.75-18.75A7.35,7.35,0,0,1,1300,547.9Z"/><path class="cls-5" d="M1423.66,591.87l14.56-14.56a7.2,7.2,0,0,1-2.65-2.46l-14.31,14.31A7.29,7.29,0,0,1,1423.66,591.87Z"/><path class="cls-5" d="M1218.51,569.28a6,6,0,0,0-.23,1.65,6.12,6.12,0,0,0,.33,2h7.59l4-4a6.21,6.21,0,0,0-2.2-2.92l-3.35,3.35Z"/><path class="cls-5" d="M1333.89,572.9h19.17a7.24,7.24,0,0,1,0-3.62h-19.17a8.72,8.72,0,0,1,0,3.62Z"/><path class="cls-5" d="M1363.47,577.51l13.82,13.82a7.39,7.39,0,0,1,2.63-2.49l-13.77-13.77A7.48,7.48,0,0,1,1363.47,577.51Z"/><path class="cls-5" d="M1390.45,597h19.75a6.95,6.95,0,0,1,0-3.62h-19.75a6.95,6.95,0,0,1,0,3.62Z"/><path class="cls-5" d="M1448.64,572.9h36.47a7.55,7.55,0,0,1-.27-2,7.45,7.45,0,0,1,.19-1.65h-36.3a7.45,7.45,0,0,1,.19,1.65A7.16,7.16,0,0,1,1448.64,572.9Z"/><path class="cls-5" d="M1180.13,569.28h-16.05a7.45,7.45,0,0,1,.2,1.65,7.56,7.56,0,0,1-.28,2h16.21a7.16,7.16,0,0,1-.28-2A6.9,6.9,0,0,1,1180.13,569.28Z"/><path class="cls-5" d="M1194.16,572.9h22.18a8.5,8.5,0,0,1-.23-2,8.17,8.17,0,0,1,.16-1.65h-22a7.45,7.45,0,0,1,.19,1.65A7.16,7.16,0,0,1,1194.16,572.9Z"/><path class="cls-5" d="M1320.3,568.2l4.7,4.7h6.64a6,6,0,0,0,0-3.62h-5.15l-3.64-3.64A6.23,6.23,0,0,0,1320.3,568.2Z"/><path class="cls-5" d="M1216.34,572.9a8.34,8.34,0,0,0,16.45-2,8.21,8.21,0,0,0-.89-3.73,8.48,8.48,0,0,0-2.29-2.82,8.34,8.34,0,0,0-13.34,4.9,8.17,8.17,0,0,0-.16,1.65A8.5,8.5,0,0,0,1216.34,572.9Zm8.11-8.14a6.19,6.19,0,0,1,5.8,4.09,6.16,6.16,0,1,1-11.64,4,6.12,6.12,0,0,1-.33-2,6,6,0,0,1,.23-1.65A6.17,6.17,0,0,1,1224.45,564.76Z"/><path class="cls-8" d="M1251,548.12a7.25,7.25,0,0,0,10.66-6.4,7.18,7.18,0,0,0-.23-1.81,7.25,7.25,0,1,0-13.1,5.77A7.36,7.36,0,0,0,1251,548.12Z"/><path class="cls-6" d="M1289.2,543.53a7.24,7.24,0,0,0,7,5.44,7.15,7.15,0,0,0,3.78-1.07,7.35,7.35,0,0,0,2.52-2.59,7.27,7.27,0,1,0-13.32-1.78Z"/><path class="cls-5" d="M1318.71,566.62a8.34,8.34,0,1,0,15.18,6.28,8.72,8.72,0,0,0,0-3.62,8.36,8.36,0,0,0-8.15-6.53,8.25,8.25,0,0,0-4.47,1.31A8.45,8.45,0,0,0,1318.71,566.62Zm7-1.7a6.17,6.17,0,0,1,5.9,4.36,6,6,0,0,1,0,3.62,6.17,6.17,0,1,1-5.9-8Z"/><path class="cls-7" d="M1353.06,572.9a7.25,7.25,0,0,0,10.41,4.61,7.48,7.48,0,0,0,2.68-2.44,7.26,7.26,0,1,0-13.09-2.17Z"/><path class="cls-6" d="M1377.29,591.33a7.24,7.24,0,1,0,13.4,3.86,7.18,7.18,0,0,0-.24-1.81,7.26,7.26,0,0,0-7-5.45,7.16,7.16,0,0,0-3.51.91A7.39,7.39,0,0,0,1377.29,591.33Z"/><path class="cls-6" d="M1410.2,597a7.25,7.25,0,0,0,14.27-1.81,7.12,7.12,0,0,0-.81-3.32,7.24,7.24,0,0,0-13.46,1.51,6.95,6.95,0,0,0,0,3.62Z"/><path class="cls-6" d="M1438.22,577.31a7.14,7.14,0,0,0,3.44.87,7.24,7.24,0,0,0,7-5.28,7.16,7.16,0,0,0,.28-2,7.45,7.45,0,0,0-.19-1.65,7.25,7.25,0,1,0-10.51,8Z"/><path class="cls-6" d="M1164.08,569.28a7.24,7.24,0,1,0-.08,3.62,7.56,7.56,0,0,0,.28-2A7.45,7.45,0,0,0,1164.08,569.28Z"/><path class="cls-8" d="M1485.11,572.9a7.26,7.26,0,1,0-.08-3.62,7.45,7.45,0,0,0-.19,1.65A7.55,7.55,0,0,0,1485.11,572.9Z"/><path class="cls-5" d="M1678.35,507.52a8.34,8.34,0,1,0,.07,3.62,8.1,8.1,0,0,0,.17-1.65A8.5,8.5,0,0,0,1678.35,507.52Zm-8.1,8.14a6.11,6.11,0,0,1-3.61-1.17,6.17,6.17,0,1,1,9.45-7,6.12,6.12,0,0,1,.33,2,6.44,6.44,0,0,1-.23,1.65A6.18,6.18,0,0,1,1670.25,515.66Z"/><path class="cls-6" d="M1643.71,532.3a7.29,7.29,0,1,0,2.67,2.45A7.2,7.2,0,0,0,1643.71,532.3Z"/><path class="cls-7" d="M1605.5,536.9a7.26,7.26,0,0,0-7-5.45,7.27,7.27,0,0,0-7.26,7.25,7.25,7.25,0,0,0,14.28,1.81,7.2,7.2,0,0,0,0-3.61Z"/><path class="cls-5" d="M1576,513.8a8.22,8.22,0,0,0,1.31-4.47,8.39,8.39,0,1,0-1.31,4.47Zm-7,1.7a6.19,6.19,0,0,1-5.9-4.36,6.2,6.2,0,0,1,0-3.62,6.17,6.17,0,0,1,12.07,1.81,6.13,6.13,0,0,1-.72,2.89,6.19,6.19,0,0,1-2.56,2.56A6.1,6.1,0,0,1,1569,515.5Z"/><path class="cls-6" d="M1541.63,507.52a7.24,7.24,0,0,0-7-5.45,7.32,7.32,0,0,0-6.06,3.28,7.27,7.27,0,1,0,13.08,2.17Z"/><path class="cls-6" d="M1517.4,489.09a7.18,7.18,0,0,0,1.12-3.86,7.31,7.31,0,1,0-1.12,3.86Z"/><path class="cls-7" d="M1484.5,483.42a7.25,7.25,0,1,0-11.06,7.84,7.17,7.17,0,0,0,4,1.23,7.26,7.26,0,0,0,7-5.45,7.24,7.24,0,0,0,0-3.62Z"/><path class="cls-6" d="M1456.48,503.11a7.26,7.26,0,0,0-10.43,4.41,7.55,7.55,0,0,0-.27,2,7.45,7.45,0,0,0,.19,1.65,7.25,7.25,0,1,0,10.51-8Z"/><path class="cls-6" d="M1722.55,502.24a7.24,7.24,0,0,0-7,5.28,7.16,7.16,0,0,0-.28,2,7.45,7.45,0,0,0,.19,1.65,7.25,7.25,0,1,0,7.06-8.9Z"/><path class="cls-5" d="M1410.71,507.52a8.34,8.34,0,1,0,.07,3.62,8.1,8.1,0,0,0,.16-1.65A8.5,8.5,0,0,0,1410.71,507.52Zm-8.11,8.14a6.18,6.18,0,1,1,6.17-6.17,6.44,6.44,0,0,1-.22,1.65A6.19,6.19,0,0,1,1402.6,515.66Z"/><path class="cls-7" d="M1189.19,564a7.38,7.38,0,0,0-2-.29,7.24,7.24,0,0,0-7.06,5.61,6.9,6.9,0,0,0-.2,1.65,7.16,7.16,0,0,0,.28,2,7.25,7.25,0,0,0,14,0,7.16,7.16,0,0,0,.28-2,7.45,7.45,0,0,0-.19-1.65,7.33,7.33,0,0,0-1.86-3.4A7.19,7.19,0,0,0,1189.19,564Z"/><path class="cls-6" d="M1261.38,501.93a7.25,7.25,0,1,0-13.68,4.62,7.35,7.35,0,0,0,2.27,2.84,7.24,7.24,0,0,0,11.34-3.84,7.35,7.35,0,0,0,.27-1.95A7.13,7.13,0,0,0,1261.38,501.93Z"/><path class="cls-6" d="M1338.71,507.57a7.25,7.25,0,1,0-13.34-5.64,7.14,7.14,0,0,0-.45,2.49,7,7,0,0,0,.1,1.13,7.24,7.24,0,0,0,11.32,4.81A7.37,7.37,0,0,0,1338.71,507.57Z"/><path class="cls-6" d="M1367.23,533.21a7,7,0,1,0,.11,1.22A8.14,8.14,0,0,0,1367.23,533.21Z"/><path class="cls-5" d="M1519.67,537.67a8.34,8.34,0,1,0-15.94-4.46,9.87,9.87,0,0,0-.09,1.22,8.34,8.34,0,0,0,16,3.24ZM1512,540.6a6.17,6.17,0,1,1,6.17-6.17,5.94,5.94,0,0,1-.36,2,6.19,6.19,0,0,1-5.81,4.14Z"/><path class="cls-6" d="M1549.34,551.62a7.24,7.24,0,0,0-5,2,7.25,7.25,0,1,0,5-2Z"/><path class="cls-8" d="M1193.5,507.49a7.16,7.16,0,0,0,.69-3.07,7.3,7.3,0,1,0-.69,3.07Z"/><path class="cls-11" d="M1477.48,679.3A12.73,12.73,0,1,0,1490.21,692,12.73,12.73,0,0,0,1477.48,679.3Z"/><g class="cls-16"><g class="cls-17"><path class="cls-11" d="M1477.48,704.76a12.73,12.73,0,0,1,0-25.46Z"/></g></g><path class="cls-11" d="M660.17,784.88a12.73,12.73,0,1,0,12.73,12.73A12.73,12.73,0,0,0,660.17,784.88Z"/><g class="cls-16"><g class="cls-18"><path class="cls-11" d="M660.17,810.34a12.73,12.73,0,1,1,0-25.46Z"/></g></g><path class="cls-11" d="M138.51,661.69a12.73,12.73,0,1,0,12.72,12.73A12.73,12.73,0,0,0,138.51,661.69Z"/><g class="cls-16"><g class="cls-19"><path class="cls-11" d="M138.51,687.15a12.73,12.73,0,0,1,0-25.46Z"/></g></g><path class="cls-11" d="M257.65,105.31A12.73,12.73,0,1,0,270.38,118,12.72,12.72,0,0,0,257.65,105.31Z"/><g class="cls-16"><g class="cls-20"><path class="cls-11" d="M257.65,130.77a12.73,12.73,0,0,1,0-25.46Z"/></g></g><path class="cls-11" d="M1704.42,793.16a32.89,32.89,0,1,0,32.89,32.89A32.89,32.89,0,0,0,1704.42,793.16Z"/><g class="cls-16"><g class="cls-21"><path class="cls-11" d="M1704.42,858.94a32.89,32.89,0,0,1,0-65.78Z"/></g></g><path class="cls-11" d="M1106.68,243.65a39.63,39.63,0,1,0,39.63,39.62A39.63,39.63,0,0,0,1106.68,243.65Z"/><g class="cls-16"><g class="cls-22"><path class="cls-11" d="M1106.68,322.9a39.63,39.63,0,1,1,0-79.25Z"/></g></g><path class="cls-11" d="M290.77,997.24a25.61,25.61,0,1,0,25.61,25.6A25.6,25.6,0,0,0,290.77,997.24Z"/><g class="cls-16"><g class="cls-23"><path class="cls-11" d="M290.77,1048.46a25.61,25.61,0,1,1,0-51.22Z"/></g></g></g></g></svg>